<svg id="visual" viewBox="0 0 1879 100" width="1879" height="100" xmlns="http://www.w3.org/2000/svg" xmlns:xlink="http://www.w3.org/1999/xlink" version="1.1"><path d="M0 4L13.7 6.5C27.3 9 54.7 14 81.8 14C109 14 136 9 163.2 6.5C190.3 4 217.7 4 245 5.5C272.3 7 299.7 10 326.8 12.7C354 15.3 381 17.7 408.2 17.7C435.3 17.7 462.7 15.3 490 12.8C517.3 10.3 544.7 7.7 572 6.2C599.3 4.7 626.7 4.3 653.8 6.2C681 8 708 12 735.2 13.5C762.3 15 789.7 14 817 13.7C844.3 13.3 871.7 13.7 898.8 15.8C926 18 953 22 980.2 22.3C1007.3 22.7 1034.7 19.3 1062 19C1089.3 18.7 1116.7 21.3 1143.8 20.5C1171 19.7 1198 15.3 1225.2 16C1252.3 16.7 1279.7 22.3 1307 21.7C1334.3 21 1361.7 14 1389 14C1416.3 14 1443.7 21 1470.8 22.5C1498 24 1525 20 1552.2 17.5C1579.3 15 1606.7 14 1634 13C1661.3 12 1688.7 11 1715.8 11.5C1743 12 1770 14 1797.2 14.2C1824.3 14.3 1851.7 12.7 1865.3 11.8L1879 11L1879 0L1865.3 0C1851.7 0 1824.3 0 1797.2 0C1770 0 1743 0 1715.8 0C1688.7 0 1661.3 0 1634 0C1606.7 0 1579.3 0 1552.2 0C1525 0 1498 0 1470.8 0C1443.7 0 1416.3 0 1389 0C1361.7 0 1334.3 0 1307 0C1279.7 0 1252.3 0 1225.2 0C1198 0 1171 0 1143.8 0C1116.7 0 1089.3 0 1062 0C1034.7 0 1007.3 0 980.2 0C953 0 926 0 898.8 0C871.7 0 844.3 0 817 0C789.7 0 762.3 0 735.2 0C708 0 681 0 653.8 0C626.7 0 599.3 0 572 0C544.7 0 517.3 0 490 0C462.7 0 435.3 0 408.2 0C381 0 354 0 326.8 0C299.7 0 272.3 0 245 0C217.7 0 190.3 0 163.2 0C136 0 109 0 81.8 0C54.7 0 27.3 0 13.7 0L0 0Z" fill="#720045"></path><path d="M0 27L13.7 27.3C27.3 27.7 54.7 28.3 81.8 27C109 25.7 136 22.3 163.2 24.2C190.3 26 217.7 33 245 38C272.3 43 299.7 46 326.8 44.8C354 43.7 381 38.3 408.2 39.5C435.3 40.7 462.7 48.3 490 46C517.3 43.7 544.7 31.3 572 28.5C599.3 25.7 626.7 32.3 653.8 33C681 33.7 708 28.3 735.2 30.5C762.3 32.7 789.7 42.3 817 42.5C844.3 42.7 871.7 33.3 898.8 35.2C926 37 953 50 980.2 55.2C1007.3 60.3 1034.7 57.7 1062 55.3C1089.3 53 1116.7 51 1143.8 44.3C1171 37.7 1198 26.3 1225.2 25.3C1252.3 24.3 1279.7 33.7 1307 40.2C1334.3 46.7 1361.7 50.3 1389 48.5C1416.3 46.7 1443.7 39.3 1470.8 36.8C1498 34.3 1525 36.7 1552.2 36.8C1579.3 37 1606.7 35 1634 34.5C1661.3 34 1688.7 35 1715.8 35C1743 35 1770 34 1797.2 31.2C1824.3 28.3 1851.7 23.7 1865.3 21.3L1879 19L1879 9L1865.3 9.8C1851.7 10.7 1824.3 12.3 1797.2 12.2C1770 12 1743 10 1715.8 9.5C1688.7 9 1661.3 10 1634 11C1606.7 12 1579.3 13 1552.2 15.5C1525 18 1498 22 1470.8 20.5C1443.7 19 1416.3 12 1389 12C1361.7 12 1334.3 19 1307 19.7C1279.7 20.3 1252.3 14.7 1225.2 14C1198 13.3 1171 17.7 1143.8 18.5C1116.7 19.3 1089.3 16.7 1062 17C1034.7 17.3 1007.3 20.7 980.2 20.3C953 20 926 16 898.8 13.8C871.7 11.7 844.3 11.3 817 11.7C789.7 12 762.3 13 735.2 11.5C708 10 681 6 653.8 4.2C626.7 2.3 599.3 2.7 572 4.2C544.7 5.7 517.3 8.3 490 10.8C462.7 13.3 435.3 15.7 408.2 15.7C381 15.7 354 13.3 326.8 10.7C299.7 8 272.3 5 245 3.5C217.7 2 190.3 2 163.2 4.5C136 7 109 12 81.8 12C54.7 12 27.3 7 13.7 4.5L0 2Z" fill="#8c0055"></path><path d="M0 27L13.7 28.7C27.3 30.3 54.7 33.7 81.8 33.2C109 32.7 136 28.3 163.2 30.5C190.3 32.7 217.7 41.3 245 47.8C272.3 54.3 299.7 58.7 326.8 58.3C354 58 381 53 408.2 53.7C435.3 54.3 462.7 60.7 490 58C517.3 55.3 544.7 43.7 572 39.7C599.3 35.7 626.7 39.3 653.8 40.3C681 41.3 708 39.7 735.2 41.2C762.3 42.7 789.7 47.3 817 48.5C844.3 49.7 871.7 47.3 898.8 50.5C926 53.7 953 62.3 980.2 64.2C1007.3 66 1034.7 61 1062 57.8C1089.3 54.7 1116.7 53.3 1143.8 49.8C1171 46.3 1198 40.7 1225.2 40C1252.3 39.3 1279.7 43.7 1307 48.3C1334.3 53 1361.7 58 1389 56.5C1416.3 55 1443.7 47 1470.8 44C1498 41 1525 43 1552.2 43.7C1579.3 44.3 1606.7 43.7 1634 43.3C1661.3 43 1688.7 43 1715.8 44.3C1743 45.7 1770 48.3 1797.2 46.8C1824.3 45.3 1851.7 39.7 1865.3 36.8L1879 34L1879 17L1865.3 19.3C1851.7 21.7 1824.3 26.3 1797.2 29.2C1770 32 1743 33 1715.8 33C1688.7 33 1661.3 32 1634 32.5C1606.7 33 1579.3 35 1552.2 34.8C1525 34.7 1498 32.3 1470.8 34.8C1443.7 37.3 1416.3 44.7 1389 46.5C1361.7 48.3 1334.3 44.7 1307 38.2C1279.7 31.7 1252.3 22.3 1225.2 23.3C1198 24.3 1171 35.7 1143.8 42.3C1116.7 49 1089.3 51 1062 53.3C1034.7 55.7 1007.3 58.3 980.2 53.2C953 48 926 35 898.8 33.2C871.7 31.3 844.3 40.7 817 40.5C789.7 40.3 762.3 30.7 735.2 28.5C708 26.3 681 31.7 653.8 31C626.7 30.3 599.3 23.7 572 26.5C544.7 29.3 517.3 41.7 490 44C462.7 46.3 435.3 38.7 408.2 37.5C381 36.3 354 41.7 326.8 42.8C299.7 44 272.3 41 245 36C217.7 31 190.3 24 163.2 22.2C136 20.3 109 23.7 81.8 25C54.7 26.3 27.3 25.7 13.7 25.3L0 25Z" fill="#a80164"></path><path d="M0 65L13.7 65.7C27.3 66.3 54.7 67.7 81.8 67.5C109 67.3 136 65.7 163.2 68.5C190.3 71.3 217.7 78.7 245 80.7C272.3 82.7 299.7 79.3 326.8 76.7C354 74 381 72 408.2 75.3C435.3 78.7 462.7 87.3 490 86.7C517.3 86 544.7 76 572 67.3C599.3 58.7 626.7 51.3 653.8 50.5C681 49.7 708 55.3 735.2 57C762.3 58.7 789.7 56.3 817 57.5C844.3 58.7 871.7 63.3 898.8 68.5C926 73.7 953 79.3 980.2 78.2C1007.3 77 1034.7 69 1062 67.8C1089.3 66.7 1116.7 72.3 1143.8 72.7C1171 73 1198 68 1225.2 68.3C1252.3 68.7 1279.7 74.3 1307 74.5C1334.3 74.7 1361.7 69.3 1389 67.5C1416.3 65.7 1443.7 67.3 1470.8 68.3C1498 69.3 1525 69.7 1552.2 65.7C1579.3 61.7 1606.7 53.3 1634 54C1661.3 54.7 1688.7 64.3 1715.8 65.7C1743 67 1770 60 1797.2 56.3C1824.3 52.7 1851.7 52.3 1865.3 52.2L1879 52L1879 32L1865.3 34.8C1851.7 37.7 1824.3 43.3 1797.2 44.8C1770 46.3 1743 43.7 1715.8 42.3C1688.7 41 1661.3 41 1634 41.3C1606.7 41.7 1579.3 42.3 1552.2 41.7C1525 41 1498 39 1470.8 42C1443.7 45 1416.3 53 1389 54.5C1361.7 56 1334.3 51 1307 46.3C1279.7 41.7 1252.3 37.3 1225.2 38C1198 38.7 1171 44.3 1143.8 47.8C1116.7 51.3 1089.3 52.7 1062 55.8C1034.7 59 1007.3 64 980.2 62.2C953 60.3 926 51.7 898.8 48.5C871.7 45.3 844.3 47.7 817 46.5C789.7 45.3 762.3 40.7 735.2 39.2C708 37.7 681 39.3 653.8 38.3C626.7 37.3 599.3 33.7 572 37.7C544.7 41.7 517.3 53.3 490 56C462.7 58.7 435.3 52.3 408.2 51.7C381 51 354 56 326.8 56.3C299.7 56.7 272.3 52.3 245 45.8C217.7 39.3 190.3 30.7 163.2 28.5C136 26.3 109 30.7 81.8 31.2C54.7 31.7 27.3 28.3 13.7 26.7L0 25Z" fill="#c40174"></path><path d="M0 77L13.7 75.8C27.3 74.7 54.7 72.3 81.8 71.2C109 70 136 70 163.2 73.5C190.3 77 217.7 84 245 88C272.3 92 299.7 93 326.8 90.2C354 87.3 381 80.7 408.2 81.7C435.3 82.7 462.7 91.3 490 91.8C517.3 92.3 544.7 84.7 572 78.3C599.3 72 626.7 67 653.8 67.5C681 68 708 74 735.2 75C762.3 76 789.7 72 817 71.5C844.3 71 871.7 74 898.8 77.7C926 81.3 953 85.7 980.2 83.2C1007.3 80.7 1034.7 71.3 1062 71.3C1089.3 71.3 1116.7 80.7 1143.8 81.2C1171 81.7 1198 73.3 1225.2 72C1252.3 70.7 1279.7 76.3 1307 79.3C1334.3 82.3 1361.7 82.7 1389 81.2C1416.3 79.7 1443.7 76.3 1470.8 74.5C1498 72.7 1525 72.3 1552.2 69.5C1579.3 66.7 1606.7 61.3 1634 61.7C1661.3 62 1688.7 68 1715.8 69.3C1743 70.7 1770 67.3 1797.2 63.7C1824.3 60 1851.7 56 1865.3 54L1879 52L1879 50L1865.3 50.2C1851.7 50.3 1824.3 50.7 1797.2 54.3C1770 58 1743 65 1715.8 63.7C1688.7 62.3 1661.3 52.7 1634 52C1606.7 51.3 1579.3 59.7 1552.2 63.7C1525 67.7 1498 67.3 1470.8 66.3C1443.7 65.3 1416.3 63.7 1389 65.5C1361.7 67.3 1334.3 72.7 1307 72.5C1279.7 72.3 1252.3 66.7 1225.2 66.3C1198 66 1171 71 1143.8 70.7C1116.7 70.3 1089.3 64.7 1062 65.8C1034.7 67 1007.3 75 980.2 76.2C953 77.3 926 71.7 898.8 66.5C871.7 61.3 844.3 56.7 817 55.5C789.7 54.3 762.3 56.7 735.2 55C708 53.3 681 47.7 653.8 48.5C626.7 49.3 599.3 56.7 572 65.3C544.7 74 517.3 84 490 84.7C462.7 85.3 435.3 76.7 408.2 73.3C381 70 354 72 326.8 74.7C299.7 77.3 272.3 80.7 245 78.7C217.7 76.7 190.3 69.3 163.2 66.5C136 63.7 109 65.3 81.8 65.5C54.7 65.7 27.3 64.3 13.7 63.7L0 63Z" fill="#e10183"></path><path d="M0 101L13.7 101C27.3 101 54.7 101 81.8 101C109 101 136 101 163.2 101C190.3 101 217.7 101 245 101C272.3 101 299.7 101 326.8 101C354 101 381 101 408.2 101C435.3 101 462.7 101 490 101C517.3 101 544.7 101 572 101C599.3 101 626.7 101 653.8 101C681 101 708 101 735.2 101C762.3 101 789.7 101 817 101C844.3 101 871.7 101 898.8 101C926 101 953 101 980.2 101C1007.3 101 1034.7 101 1062 101C1089.3 101 1116.7 101 1143.8 101C1171 101 1198 101 1225.2 101C1252.3 101 1279.7 101 1307 101C1334.3 101 1361.7 101 1389 101C1416.3 101 1443.7 101 1470.8 101C1498 101 1525 101 1552.2 101C1579.3 101 1606.7 101 1634 101C1661.3 101 1688.7 101 1715.8 101C1743 101 1770 101 1797.2 101C1824.3 101 1851.7 101 1865.3 101L1879 101L1879 50L1865.3 52C1851.7 54 1824.3 58 1797.2 61.7C1770 65.3 1743 68.7 1715.8 67.3C1688.7 66 1661.3 60 1634 59.7C1606.7 59.3 1579.3 64.7 1552.2 67.5C1525 70.3 1498 70.7 1470.8 72.5C1443.7 74.3 1416.3 77.7 1389 79.2C1361.7 80.7 1334.3 80.3 1307 77.3C1279.7 74.3 1252.3 68.7 1225.2 70C1198 71.3 1171 79.7 1143.8 79.2C1116.7 78.7 1089.3 69.3 1062 69.3C1034.7 69.3 1007.3 78.7 980.2 81.2C953 83.7 926 79.3 898.8 75.7C871.7 72 844.3 69 817 69.5C789.7 70 762.3 74 735.2 73C708 72 681 66 653.8 65.5C626.7 65 599.3 70 572 76.3C544.7 82.7 517.3 90.3 490 89.8C462.7 89.3 435.3 80.7 408.2 79.7C381 78.7 354 85.3 326.8 88.2C299.7 91 272.3 90 245 86C217.7 82 190.3 75 163.2 71.5C136 68 109 68 81.8 69.2C54.7 70.3 27.3 72.7 13.7 73.8L0 75Z" fill="#ff0093"></path></svg>